<svg width="370.11666258578134" height="204.51852758715265" viewBox="0 0 370.11666258578134 204.51852758715265" class="css-1j8o68f"><defs id="SvgjsDefs2209"></defs><g id="SvgjsG2210" featurekey="HKaMnE-0" transform="matrix(1.9751852758715265,0,0,1.9751852758715265,6,7)" fill="#f8b500"><path xmlns="http://www.w3.org/2000/svg" d="M9.239,62.648c0.961-2.899,1.93-8.616,2.867-14.145c2.742-16.188,4.345-24.152,10-24.492L22.171,24h0.29  c0.011,0,0.021,0,0.03,0l0.4,0.012c5.657,0.338,7.26,8.303,10.002,24.492c0.938,5.528,1.906,11.245,2.901,14.231  c0.29,0.57,1.841,1.976,3.205,3.173C39,51.057,39,35.194,39,27c0-2.443-1.557-8.917-4-8.917S31,24.557,31,27c0-19-5-27-8.509-27  C19,0,14,8,14,27c0-2.443-1.557-8.917-4-8.917S6,24.557,6,27c0,8.194,0,24.057,0,38.907C7.365,64.708,8.922,63.29,9.239,62.648z"></path><path xmlns="http://www.w3.org/2000/svg" d="M32,64c-3-9-5-36-9.491-36c-0.003,0-0.006,0.001-0.009,0.001S22.494,28,22.491,28C18,28,16,55,13,64  C11.696,67.911,0,74,0,80c0,0.75,0,3,0,3l16,3v4l6.5,1.562L29,90v-4l16-3c0,0,0-2.25,0-3C45,74,33.304,67.911,32,64z"></path><path xmlns="http://www.w3.org/2000/svg" d="M6,100h8c0,0,0-8.41,0-12.375l-8-1.5C6,93.227,6,100,6,100z"></path><path xmlns="http://www.w3.org/2000/svg" d="M31,100h8c0,0,0-6.773,0-13.875l-8,1.5C31,91.59,31,100,31,100z"></path></g><g id="SvgjsG2211" featurekey="J3GnXt-0" transform="matrix(6.252793324434236,0,0,6.252793324434236,109.7503404464851,13.483686031203518)" fill="#000"><path d="M2.1 5.84 l4.16 11.52 l0.04 0 l4.32 -11.52 l2.1 0 l-5.58 14.16 l-1.8 0 l-5.46 -14.16 l2.22 0 z M16.66 10.28 c1.2 0 2.15 0.27328 2.85 0.81994 s1.07 1.3067 1.11 2.28 l0 5.08 c0 0.48 0.02666 0.99334 0.08 1.54 l-1.6 0 c-0.04 -0.42666 -0.06 -0.90666 -0.06 -1.44 l-0.04 0 c-0.41334 0.61334 -0.89 1.0467 -1.43 1.3 s-1.17 0.38 -1.89 0.38 c-0.97334 0 -1.7633 -0.26 -2.37 -0.78 s-0.91 -1.2067 -0.91 -2.06 c0 -1.08 0.45334 -1.8967 1.36 -2.45 s2.1866 -0.83 3.84 -0.83 l1.34 0 l0 -0.34 c0 -0.64 -0.21 -1.1433 -0.63 -1.51 s-0.97 -0.55 -1.65 -0.55 c-0.50666 0 -0.95 0.07666 -1.33 0.23 s-0.83 0.43668 -1.35 0.85002 l-1.08 -1.12 c1.0267 -0.90666 2.28 -1.3733 3.76 -1.4 z M14.2 17.259999999999998 c0 1.0267 0.68002 1.54 2.04 1.54 c0.81334 0 1.4633 -0.24334 1.95 -0.73 s0.73666 -1.19 0.75 -2.11 l0 -0.52 l-1.02 0 c-1.1733 0 -2.0866 0.15 -2.74 0.45 s-0.98 0.75666 -0.98 1.37 z M24.180000000000003 10.52 l2.82 7.4 l0.04 0 l2.68 -7.4 l1.94 0 l-4.48 11.48 c-0.41334 1.1067 -0.86668 1.85 -1.36 2.23 s-1.1267 0.57 -1.9 0.57 c-0.65334 0 -1.1867 -0.08666 -1.6 -0.26 l0.22 -1.62 c0.37334 0.13334 0.73334 0.2 1.08 0.2 c0.56 0 0.96334 -0.13666 1.21 -0.41 s0.46332 -0.66334 0.64998 -1.17 l0.56 -1.48 l-3.94 -9.54 l2.08 0 z M35.040000000000006 10.52 l0 5.68 c0 0.74666 0.19666 1.3267 0.59 1.74 s0.91668 0.62 1.57 0.62 c0.84 0 1.49 -0.27666 1.95 -0.83 s0.69 -1.3033 0.69 -2.25 l0 -4.96 l1.8 0 l0 9.48 l-1.8 0 l0 -1.46 l-0.04 0 c-0.25334 0.53334 -0.66668 0.95 -1.24 1.25 s-1.2 0.45 -1.88 0.45 c-1.0533 0 -1.89 -0.32666 -2.51 -0.98 s-0.93 -1.5067 -0.93 -2.56 l0 -6.18 l1.8 0 z"></path></g></svg>